<svg width="23" height="30" viewBox="0 0 23 30" fill="none" xmlns="http://www.w3.org/2000/svg">
<path fill-rule="evenodd" clip-rule="evenodd" d="M11.5 0.241211C7.72254 0.241211 4.66031 3.30344 4.66031 7.08089C4.66031 10.8583 7.72254 13.9206 11.5 13.9206C15.2774 13.9206 18.3397 10.8583 18.3397 7.08089C18.3397 3.30344 15.2774 0.241211 11.5 0.241211ZM6.82021 7.08089C6.82021 4.49632 8.91542 2.40111 11.5 2.40111C14.0846 2.40111 16.1798 4.49632 16.1798 7.08089C16.1798 9.66546 14.0846 11.7607 11.5 11.7607C8.91542 11.7607 6.82021 9.66546 6.82021 7.08089Z" fill="#251D30"/>
<path fill-rule="evenodd" clip-rule="evenodd" d="M11.5 16.0805C8.56349 16.0805 5.85188 16.7583 3.83688 17.9097C1.85244 19.0437 0.340515 20.7748 0.340515 22.9201C0.340515 25.0655 1.85244 26.7966 3.83688 27.9306C5.85188 29.082 8.56349 29.7598 11.5 29.7598C14.4365 29.7598 17.1481 29.082 19.1631 27.9306C21.1475 26.7966 22.6595 25.0655 22.6595 22.9201C22.6595 20.7748 21.1475 19.0437 19.1631 17.9097C17.1481 16.7583 14.4365 16.0805 11.5 16.0805ZM2.50041 22.9201C2.50041 21.8844 3.24487 20.7357 4.90849 19.7851C6.54157 18.8519 8.86973 18.2404 11.5 18.2404C14.1303 18.2404 16.4584 18.8519 18.0915 19.7851C19.7551 20.7357 20.4996 21.8844 20.4996 22.9201C20.4996 23.9559 19.7551 25.1046 18.0915 26.0552C16.4584 26.9884 14.1303 27.5999 11.5 27.5999C8.86973 27.5999 6.54157 26.9884 4.90849 26.0552C3.24487 25.1046 2.50041 23.9559 2.50041 22.9201Z" fill="#251D30"/>
</svg>
