<svg width="26" height="30" viewBox="0 0 26 30" fill="none" xmlns="http://www.w3.org/2000/svg">
<path d="M25.6419 26.7947L24.6429 8.67881H19.6519V7.21626C19.6519 3.56848 16.6845 0.601074 13.0369 0.601074C9.38925 0.601074 6.42184 3.56863 6.42184 7.21626V8.67881H1.21491L0.355411 26.8731L0.35454 26.9046C0.347485 27.5593 0.607683 28.202 1.06803 28.6669C1.52852 29.1325 2.16828 29.3997 2.82331 29.3997H23.1769C23.8519 29.3997 24.5057 29.1185 24.97 28.6279C25.4343 28.1373 25.6792 27.4692 25.6419 26.7947ZM8.14717 7.21626C8.14717 4.51999 10.3406 2.3264 13.0369 2.3264C15.733 2.3264 17.9266 4.51999 17.9266 7.21626V8.67881H8.14702V7.21626H8.14717ZM23.7169 27.4417C23.5768 27.5894 23.3801 27.6743 23.1768 27.6743H2.82317C2.6259 27.6743 2.43337 27.5939 2.29442 27.4534C2.15877 27.3166 2.08088 27.1284 2.07959 26.9354L2.86046 10.4041H6.42156V12.5889C6.42156 13.0654 6.80774 13.4516 7.28422 13.4516C7.76069 13.4516 8.14688 13.0654 8.14688 12.5889V10.4041H17.9265V12.5889C17.9265 13.0654 18.3127 13.4516 18.7891 13.4516C19.2656 13.4516 19.6517 13.0654 19.6517 12.5889V10.4041H23.0097L23.9187 26.8899C23.9304 27.093 23.8567 27.2941 23.7169 27.4417Z" fill="#251D30"/>
</svg>
