<svg width="32" height="26" viewBox="0 0 32 26" fill="none" xmlns="http://www.w3.org/2000/svg">
<g id="Frame 3">
<g id="filter-circle">
<path id="vector" d="M2.13727 20.0688H8.9081" stroke="#251D30" stroke-width="1.56" stroke-miterlimit="10" stroke-linecap="round" stroke-linejoin="round"/>
<path id="vector_2" d="M29.2206 5.17334H22.4498" stroke="#251D30" stroke-width="1.56" stroke-miterlimit="10" stroke-linecap="round" stroke-linejoin="round"/>
<path id="vector_3" d="M17.0331 20.0688H29.2206" stroke="#251D30" stroke-width="1.56" stroke-miterlimit="10" stroke-linecap="round" stroke-linejoin="round"/>
<path id="vector_4" d="M14.3248 5.17334H2.13727" stroke="#251D30" stroke-width="1.56" stroke-miterlimit="10" stroke-linecap="round" stroke-linejoin="round"/>
<path id="vector_5" d="M12.9706 23.9961C10.7269 23.9961 8.90808 22.1773 8.90808 19.9336C8.90808 17.6899 10.7269 15.8711 12.9706 15.8711C15.2143 15.8711 17.0331 17.6899 17.0331 19.9336C17.0331 22.1773 15.2143 23.9961 12.9706 23.9961Z" stroke="#251D30" stroke-width="1.56" stroke-miterlimit="10" stroke-linecap="round" stroke-linejoin="round"/>
<path id="vector_6" d="M18.3873 9.1001C20.631 9.1001 22.4498 7.28126 22.4498 5.0376C22.4498 2.79395 20.631 0.975098 18.3873 0.975098C16.1435 0.975098 14.3248 2.79395 14.3248 5.0376C14.3248 7.28126 16.1435 9.1001 18.3873 9.1001Z" stroke="#251D30" stroke-width="1.56" stroke-miterlimit="10" stroke-linecap="round" stroke-linejoin="round"/>
</g>
</g>
</svg>
