<svg width="81" height="32" viewBox="0 0 81 32" fill="none" xmlns="http://www.w3.org/2000/svg">
<path d="M0.8304 0.980488H3.3168V22.3501H16.488V24.5005H0.8304V0.980488ZM27.0738 24.6685C25.3714 24.6685 23.837 24.2877 22.4706 23.5261C21.1042 22.7421 20.029 21.6669 19.245 20.3005C18.461 18.9341 18.069 17.3885 18.069 15.6637C18.069 13.9389 18.461 12.3933 19.245 11.0269C20.029 9.66049 21.1042 8.59649 22.4706 7.83489C23.837 7.07329 25.3714 6.69249 27.0738 6.69249C28.7762 6.69249 30.3106 7.07329 31.677 7.83489C33.0434 8.59649 34.1074 9.66049 34.869 11.0269C35.653 12.3933 36.045 13.9389 36.045 15.6637C36.045 17.3885 35.653 18.9341 34.869 20.3005C34.1074 21.6669 33.0434 22.7421 31.677 23.5261C30.3106 24.2877 28.7762 24.6685 27.0738 24.6685ZM27.0738 22.5517C28.3282 22.5517 29.4482 22.2717 30.4338 21.7117C31.4418 21.1293 32.2258 20.3117 32.7858 19.2589C33.3458 18.2061 33.6258 17.0077 33.6258 15.6637C33.6258 14.3197 33.3458 13.1213 32.7858 12.0685C32.2258 11.0157 31.4418 10.2093 30.4338 9.64929C29.4482 9.06689 28.3282 8.77569 27.0738 8.77569C25.8194 8.77569 24.6882 9.06689 23.6802 9.64929C22.6946 10.2093 21.9106 11.0157 21.3282 12.0685C20.7682 13.1213 20.4882 14.3197 20.4882 15.6637C20.4882 17.0077 20.7682 18.2061 21.3282 19.2589C21.9106 20.3117 22.6946 21.1293 23.6802 21.7117C24.6882 22.2717 25.8194 22.5517 27.0738 22.5517ZM57.2787 6.82689V22.3501C57.2787 25.3517 56.5395 27.5693 55.0611 29.0029C53.6051 30.4589 51.3987 31.1869 48.4419 31.1869C46.8067 31.1869 45.2499 30.9405 43.7715 30.4477C42.3155 29.9773 41.1283 29.3165 40.2099 28.4653L41.4195 26.6509C42.2707 27.4125 43.3011 28.0061 44.5107 28.4317C45.7427 28.8573 47.0307 29.0701 48.3747 29.0701C50.6147 29.0701 52.2611 28.5437 53.3139 27.4909C54.3667 26.4605 54.8931 24.8477 54.8931 22.6525V20.4013C54.1539 21.5213 53.1795 22.3725 51.9699 22.9549C50.7827 23.5373 49.4611 23.8285 48.0051 23.8285C46.3475 23.8285 44.8355 23.4701 43.4691 22.7533C42.1251 22.0141 41.0611 20.9949 40.2771 19.6957C39.5155 18.3741 39.1347 16.8845 39.1347 15.2269C39.1347 13.5693 39.5155 12.0909 40.2771 10.7917C41.0611 9.49249 42.1251 8.48449 43.4691 7.76769C44.8131 7.05089 46.3251 6.69249 48.0051 6.69249C49.5059 6.69249 50.8611 6.99489 52.0707 7.59969C53.2803 8.20449 54.2547 9.07809 54.9939 10.2205V6.82689H57.2787ZM48.2403 21.7117C49.5171 21.7117 50.6707 21.4429 51.7011 20.9053C52.7315 20.3453 53.5267 19.5725 54.0867 18.5869C54.6691 17.6013 54.9603 16.4813 54.9603 15.2269C54.9603 13.9725 54.6691 12.8637 54.0867 11.9005C53.5267 10.9149 52.7315 10.1533 51.7011 9.61569C50.6931 9.05569 49.5395 8.77569 48.2403 8.77569C46.9635 8.77569 45.8099 9.04449 44.7795 9.58209C43.7715 10.1197 42.9763 10.8813 42.3939 11.8669C41.8339 12.8525 41.5539 13.9725 41.5539 15.2269C41.5539 16.4813 41.8339 17.6013 42.3939 18.5869C42.9763 19.5725 43.7715 20.3453 44.7795 20.9053C45.8099 21.4429 46.9635 21.7117 48.2403 21.7117ZM71.1738 24.6685C69.4714 24.6685 67.937 24.2877 66.5706 23.5261C65.2042 22.7421 64.129 21.6669 63.345 20.3005C62.561 18.9341 62.169 17.3885 62.169 15.6637C62.169 13.9389 62.561 12.3933 63.345 11.0269C64.129 9.66049 65.2042 8.59649 66.5706 7.83489C67.937 7.07329 69.4714 6.69249 71.1738 6.69249C72.8762 6.69249 74.4106 7.07329 75.777 7.83489C77.1434 8.59649 78.2074 9.66049 78.969 11.0269C79.753 12.3933 80.145 13.9389 80.145 15.6637C80.145 17.3885 79.753 18.9341 78.969 20.3005C78.2074 21.6669 77.1434 22.7421 75.777 23.5261C74.4106 24.2877 72.8762 24.6685 71.1738 24.6685ZM71.1738 22.5517C72.4282 22.5517 73.5482 22.2717 74.5338 21.7117C75.5418 21.1293 76.3258 20.3117 76.8858 19.2589C77.4458 18.2061 77.7258 17.0077 77.7258 15.6637C77.7258 14.3197 77.4458 13.1213 76.8858 12.0685C76.3258 11.0157 75.5418 10.2093 74.5338 9.64929C73.5482 9.06689 72.4282 8.77569 71.1738 8.77569C69.9194 8.77569 68.7882 9.06689 67.7802 9.64929C66.7946 10.2093 66.0106 11.0157 65.4282 12.0685C64.8682 13.1213 64.5882 14.3197 64.5882 15.6637C64.5882 17.0077 64.8682 18.2061 65.4282 19.2589C66.0106 20.3117 66.7946 21.1293 67.7802 21.7117C68.7882 22.2717 69.9194 22.5517 71.1738 22.5517Z" fill="#251D30"/>
</svg>
