<svg width="30" height="32" viewBox="0 0 30 32" fill="none" xmlns="http://www.w3.org/2000/svg">
<path d="M17.1681 6.79688C17.1681 6.79688 18.1848 11.9441 20.414 14.1582C22.6431 16.3723 27.7971 17.3543 27.7971 17.3543C27.7971 17.3543 22.6498 18.371 20.4357 20.6001C18.2216 22.8292 17.2397 27.9832 17.2397 27.9832C17.2397 27.9832 16.223 22.8359 13.9939 20.6218C11.7648 18.4077 6.61075 17.4258 6.61075 17.4258C6.61075 17.4258 11.758 16.4091 13.9721 14.18C16.1862 11.9509 17.1681 6.79688 17.1681 6.79688Z" stroke="#F7F5F2" stroke-width="2.0839" stroke-linejoin="round"/>
<path d="M6.24934 1.93457C6.24934 1.93457 6.64935 3.95973 7.52638 4.83085C8.40341 5.70197 10.4312 6.0883 10.4312 6.0883C10.4312 6.0883 8.40606 6.48831 7.53494 7.36534C6.66382 8.24237 6.27749 10.2702 6.27749 10.2702C6.27749 10.2702 5.87748 8.24502 5.00045 7.3739C4.12342 6.50278 2.09561 6.11645 2.09561 6.11645C2.09561 6.11645 4.12077 5.71644 4.99189 4.83941C5.86301 3.96238 6.24934 1.93457 6.24934 1.93457Z" stroke="#F7F5F2" stroke-width="1.38927" stroke-linejoin="round"/>
</svg>
